<svg id="Group_5" data-name="Group 5" xmlns="http://www.w3.org/2000/svg" width="172.253" height="31.045" viewBox="0 0 172.253 31.045">
  <g id="Group_4" data-name="Group 4" transform="translate(0 0)">
    <path id="Path_3" data-name="Path 3" d="M480.19,2106.8V2076.79h8.817v12.726h.166l9.274-12.726H507.7l-9.877,13.329,10.334,16.676H497.906l-6.55-11.021-2.35,3.161v7.86Z" transform="translate(-480.19 -2076.27)" fill="#fff"/>
    <path id="Path_4" data-name="Path 4" d="M896.859,2095.13c0,3.161,1.559,4.886,4.408,4.886s4.408-1.726,4.408-4.886v-18.34h8.816v19.317c0,6.841-5.3,11.208-13.225,11.208s-13.225-4.366-13.225-11.208V2076.79h8.817Z" transform="translate(-858.203 -2076.27)" fill="#fff"/>
    <path id="Path_5" data-name="Path 5" d="M1315.227,2106.8h-8.816V2076.79h13.329c8.006,0,12.123,3.764,12.123,10.189a9.149,9.149,0,0,1-4.845,8.442l5.7,11.374h-9.856l-4.741-10.064h-2.89Zm0-15.886h3.639a3.639,3.639,0,0,0,3.992-3.785,3.73,3.73,0,0,0-3.972-3.826h-3.66Z" transform="translate(-1245.964 -2076.27)" fill="#fff"/>
    <path id="Path_6" data-name="Path 6" d="M1702.689,2100.827h-9.149l-1.56,5.968H1683l9.794-30.005h11.062l9.794,30.005h-9.4Zm-7.548-6.217h5.947l-2.89-10.9h-.166Z" transform="translate(-1594.999 -2076.27)" fill="#fff"/>
    <path id="Path_7" data-name="Path 7" d="M2115.671,2100.73c-9.524,0-15.159-5.594-15.159-15.554,0-9.835,5.635-15.491,14.888-15.491,7.527,0,13.142,4.429,13.807,10.584h-8.671a5,5,0,0,0-5.094-3.639c-3.743,0-5.947,3.077-5.947,8.421,0,5.469,2.516,8.733,6.384,8.733,2.869,0,4.907-1.6,5.157-4.013l.042-.416H2116.5v-5.864h13.058v3.951C2129.561,2095.656,2124.383,2100.73,2115.671,2100.73Z" transform="translate(-1981.969 -2069.685)" fill="#fff"/>
    <path id="Path_8" data-name="Path 8" d="M2566.48,2106.8h-21.168V2076.79h21.168v7.008h-12.351v4.845h11.582v6.321h-11.582v4.824h12.351Z" transform="translate(-2394.227 -2076.27)" fill="#fff"/>
  </g>
</svg>
