<svg xmlns="http://www.w3.org/2000/svg" width="22.254" height="20" viewBox="0 0 22.254 20">
  <path id="Path_15133" data-name="Path 15133" d="M188.088,129.044a5.909,5.909,0,0,0-4.29,1.843,6.44,6.44,0,0,0,0,8.846l8.556,8.985a1.158,1.158,0,0,0,1.611,0q4.285-4.485,8.567-8.973a6.437,6.437,0,0,0,0-8.846,5.93,5.93,0,0,0-8.591,0l-.777.8-.777-.812a5.934,5.934,0,0,0-4.3-1.843Zm0,2.191a3.713,3.713,0,0,1,2.69,1.194l1.588,1.658a1.159,1.159,0,0,0,1.611,0l1.577-1.646a3.612,3.612,0,0,1,5.368,0,4.206,4.206,0,0,1,0,5.762q-3.881,4.061-7.756,8.127l-7.756-8.127a4.221,4.221,0,0,1-.011-5.773,3.813,3.813,0,0,1,2.69-1.194Z" transform="translate(-182.04 -129.044)" fill="#fff"/>
</svg>
