<svg xmlns="http://www.w3.org/2000/svg" width="27.05" height="27.3" viewBox="0 0 27.05 27.3">
  <path id="Path_15135" data-name="Path 15135" d="M179.175,85.758a1.262,1.262,0,0,0-1.242-.274l-18.069,5.737a1.274,1.274,0,0,0,.08,2.45c1.232.307,2.451.595,3.673.888,1.931.463,3.933.94,5.959,1.468a.337.337,0,0,1,.231.212c.637,1.9,1.341,3.9,2.026,5.822.415,1.176.831,2.347,1.237,3.508a1.258,1.258,0,0,0,1.195.855h.08a1.257,1.257,0,0,0,1.166-1l4.051-18.452a1.278,1.278,0,0,0-.387-1.218Zm-15.336,7.885c-1.218-.293-2.432-.581-3.664-.888a.314.314,0,0,1-.25-.312.3.3,0,0,1,.227-.321l17.678-5.614-7.9,8.655a1.27,1.27,0,0,0-.118-.047c-2.035-.529-4.037-1.011-5.973-1.473Zm10.746,11.577a.323.323,0,0,1-.3.26.308.308,0,0,1-.326-.217c-.406-1.161-.822-2.342-1.237-3.518-.68-1.922-1.388-3.9-2.021-5.8a1.418,1.418,0,0,0-.071-.146l7.932-8.693Z" transform="matrix(0.951, 0.309, -0.309, 0.951, -117.835, -129.886)" fill="#fff" stroke="#fff" stroke-width="0.75"/>
</svg>
